HIERARCHY
ROOT Hips
{
	OFFSET 0.000000 0.000000 0.000000
	CHANNELS 6 Xposition Yposition Zposition Xrotation Yrotation Zrotation
	JOINT LeftUpLeg_virtual
	{
		OFFSET 0.000000 0.000000 0.000000
		CHANNELS 3 Xrotation Yrotation Zrotation
		JOINT LeftUpLeg
		{
			OFFSET 10.205400 -3.823500 0.155100
			CHANNELS 3 Xrotation Yrotation Zrotation
			JOINT LeftLeg
			{
				OFFSET 0.708757 -12.982077 0.567790
				CHANNELS 3 Xrotation Yrotation Zrotation
				JOINT LeftFoot
				{
					OFFSET -0.708756 -10.717838 -2.184338
					CHANNELS 3 Xrotation Yrotation Zrotation
					JOINT LeftToeBase
					{
						OFFSET 0.108149 -7.191104 7.560241
						CHANNELS 3 Xrotation Yrotation Zrotation
						JOINT LeftToe_End
						{
							OFFSET 0.070230 0.081724 4.490308
							CHANNELS 3 Xrotation Yrotation Zrotation
							End Site
							{
								OFFSET 0 0 0
							}
						}
					}
				}
			}
		}
	}
	JOINT RightUpLeg_virtual
	{
		OFFSET 0.000000 0.000000 0.000000
		CHANNELS 3 Xrotation Yrotation Zrotation
		JOINT RightUpLeg
		{
			OFFSET -10.205400 -3.823500 0.005500
			CHANNELS 3 Xrotation Yrotation Zrotation
			JOINT RightLeg
			{
				OFFSET -0.708756 -12.982134 0.610632
				CHANNELS 3 Xrotation Yrotation Zrotation
				JOINT RightFoot
				{
					OFFSET 0.708754 -10.717769 -1.945823
					CHANNELS 3 Xrotation Yrotation Zrotation
					JOINT RightToeBase
					{
						OFFSET -0.108140 -7.191069 7.372968
						CHANNELS 3 Xrotation Yrotation Zrotation
						JOINT RightToe_End
						{
							OFFSET -0.070227 0.081735 4.479403
							CHANNELS 3 Xrotation Yrotation Zrotation
							End Site
							{
								OFFSET 0 0 0
							}
						}
					}
				}
			}
		}
	}
	JOINT Spine_virtual
	{
		OFFSET 0.000000 0.000000 0.000000
		CHANNELS 3 Xrotation Yrotation Zrotation
		JOINT Spine
		{
			OFFSET 0.000000 6.876099 0.125700
			CHANNELS 3 Xrotation Yrotation Zrotation
			JOINT Spine1
			{
				OFFSET 0.000000 5.730043 0.104720
				CHANNELS 3 Xrotation Yrotation Zrotation
				JOINT Spine1_split
				{
					OFFSET 0.000000 5.730043 0.104720
					CHANNELS 3 Xrotation Yrotation Zrotation
					JOINT Spine2
					{
						OFFSET 0.000000 5.730043 0.104720
						CHANNELS 3 Xrotation Yrotation Zrotation
						JOINT Neck_virtual
						{
							OFFSET 0.000000 0.000000 0.000000
							CHANNELS 3 Xrotation Yrotation Zrotation
							JOINT Neck
							{
								OFFSET 0.000000 10.314075 0.188496
								CHANNELS 3 Xrotation Yrotation Zrotation
								JOINT Head
								{
									OFFSET 0.000000 7.643700 -2.377400
									CHANNELS 3 Xrotation Yrotation Zrotation
									JOINT HeadTop_End
									{
										OFFSET 0.000000 43.788605 -13.619600
										CHANNELS 3 Xrotation Yrotation Zrotation
										End Site
										{
											OFFSET 0 0 0
										}
									}
								}
							}
						}
						JOINT LeftShoulder_virtual
						{
							OFFSET 0.000000 0.000000 0.000000
							CHANNELS 3 Xrotation Yrotation Zrotation
							JOINT LeftShoulder
							{
								OFFSET 2.196100 4.412489 0.087492
								CHANNELS 3 Xrotation Yrotation Zrotation
								JOINT LeftShoulder_split
								{
									OFFSET 2.196100 4.412489 0.087492
									CHANNELS 3 Xrotation Yrotation Zrotation
									JOINT LeftArm
									{
										OFFSET 8.771219 -2.981674 -0.026999
										CHANNELS 3 Xrotation Yrotation Zrotation
										JOINT LeftForeArm
										{
											OFFSET 8.512804 0.000000 -0.000000
											CHANNELS 3 Xrotation Yrotation Zrotation
											JOINT LeftHand
											{
												OFFSET 18.484802 0.000000 -0.000000
												CHANNELS 3 Xrotation Yrotation Zrotation
												End Site
												{
													OFFSET 0 0 0
												}
											}
										}
									}
								}
							}
						}
						JOINT RightShoulder_virtual
						{
							OFFSET 0.000000 0.000000 0.000000
							CHANNELS 3 Xrotation Yrotation Zrotation
							JOINT RightShoulder
							{
								OFFSET -2.196100 4.412496 0.070690
								CHANNELS 3 Xrotation Yrotation Zrotation
								JOINT RightShoulder_split
								{
									OFFSET -2.196100 4.412496 0.070690
									CHANNELS 3 Xrotation Yrotation Zrotation
									JOINT RightArm
									{
										OFFSET -8.771282 -2.981682 -0.094208
										CHANNELS 3 Xrotation Yrotation Zrotation
										JOINT RightForeArm
										{
											OFFSET -8.494598 0.000000 0.000000
											CHANNELS 3 Xrotation Yrotation Zrotation
											JOINT RightHand
											{
												OFFSET -18.483803 0.000000 0.000001
												CHANNELS 3 Xrotation Yrotation Zrotation
												End Site
												{
													OFFSET 0 0 0
												}
											}
										}
									}
								}
							}
						}
					}
				}
			}
		}
	}
}
MOTION
Frames: 5
Frame Time: 0.03333333
7.149312 7.473837 -12.522510 0.000000 0.000000 0.000000 83.726945 1.638637 -0.023809 -1.648850 -2.319878 37.715055 43.708050 -5.817297 -22.924785 31.806559 64.722265 -37.621204 1.571359 -8.339128 -5.532363 0.000000 0.000000 0.000000 83.658964 -2.515309 -0.454757 -35.609659 -40.877924 -47.285324 42.366984 31.751589 -7.299653 41.474316 -53.001052 43.201780 25.018658 10.235435 7.241311 0.000000 0.000000 0.000000 91.270950 0.602054 -1.431870 17.227643 -0.206098 -1.562477 -10.055802 -2.516461 0.203175 -0.035014 0.477023 0.056515 0.000000 0.000000 0.000000 -5.941467 -0.901245 1.203953 -5.449004 0.389783 10.801732 -26.516780 -21.715692 2.427934 0.000000 0.000000 0.000000 -11.269068 -0.862164 -0.455000 -1.448771 -9.675543 4.981838 3.065445 1.381581 -5.204949 24.247829 -32.309991 -59.321805 -11.793613 -33.759569 -7.352045 0.000000 0.000000 0.000000 -7.821560 -1.849588 0.177281 7.034278 1.777884 3.317318 -22.681578 2.060353 4.169177 13.725222 15.257497 53.350601 -24.636433 17.786043 20.969444 0.000000 0.000000 0.000000 
7.149191 7.473936 -12.523623 0.000000 0.000000 0.000000 83.723646 1.639837 -0.015256 -1.644456 -2.326646 37.711414 43.711025 -5.813128 -22.927161 31.827992 64.719731 -37.633919 1.578182 -8.337945 -5.536745 0.000000 0.000000 0.000000 83.647011 -2.513069 -0.452930 -35.603707 -40.879679 -47.289293 42.378851 31.748324 -7.301323 41.473124 -52.996988 43.207449 25.029761 10.237318 7.239031 0.000000 0.000000 0.000000 91.264735 0.610324 -1.430517 17.229873 -0.204572 -1.563948 -10.055491 -2.513288 0.201781 -0.034318 0.476226 0.056701 0.000000 0.000000 0.000000 -5.940943 -0.899212 1.202511 -5.449657 0.391759 10.807523 -26.508114 -21.709369 2.428224 0.000000 0.000000 0.000000 -11.266829 -0.859765 -0.458089 -1.446325 -9.689498 4.986333 3.059793 1.391973 -5.173591 24.250315 -32.303619 -59.321217 -11.797968 -33.738368 -7.351111 0.000000 0.000000 0.000000 -7.820929 -1.847171 0.177208 7.028668 1.768955 3.315300 -22.683506 2.047933 4.164593 13.699209 15.210941 53.389782 -24.648223 17.766461 20.981262 0.000000 0.000000 0.000000 
7.149286 7.474972 -12.525628 0.000000 0.000000 0.000000 83.715586 1.642107 -0.008899 -1.640600 -2.331984 37.705253 43.715420 -5.800560 -22.923146 31.853803 64.720414 -37.642457 1.581598 -8.335932 -5.543744 0.000000 0.000000 0.000000 83.636124 -2.513031 -0.451050 -35.581290 -40.895109 -47.284379 42.380801 31.731788 -7.299529 41.455512 -53.006749 43.202709 25.046116 10.241718 7.233833 0.000000 0.000000 0.000000 91.255214 0.619952 -1.430449 17.235373 -0.200615 -1.565862 -10.055810 -2.509172 0.200595 -0.034019 0.476148 0.056958 0.000000 0.000000 0.000000 -5.940921 -0.895850 1.200836 -5.459549 0.390757 10.821630 -26.503354 -21.696412 2.421210 0.000000 0.000000 0.000000 -11.266141 -0.856137 -0.460481 -1.442905 -9.718368 4.994692 3.061130 1.394942 -5.151942 24.241277 -32.304391 -59.321129 -11.798354 -33.677706 -7.346319 0.000000 0.000000 0.000000 -7.820986 -1.844098 0.177578 7.013644 1.741244 3.315780 -22.691483 2.032658 4.169247 13.661075 15.145340 53.422379 -24.665818 17.716206 21.007787 0.000000 0.000000 0.000000 
7.149241 7.476610 -12.528560 0.000000 0.000000 0.000000 83.703914 1.646987 -0.005522 -1.642301 -2.337937 37.698963 43.722510 -5.786379 -22.913046 31.881465 64.719020 -37.652702 1.587410 -8.333428 -5.552702 0.000000 0.000000 0.000000 83.624130 -2.513575 -0.447463 -35.552900 -40.917751 -47.279232 42.376560 31.708081 -7.296622 41.434629 -53.017848 43.203030 25.064971 10.248042 7.226467 0.000000 0.000000 0.000000 91.242994 0.628596 -1.430819 17.244896 -0.195228 -1.567802 -10.055608 -2.504113 0.199489 -0.034879 0.476489 0.057470 0.000000 0.000000 0.000000 -5.941217 -0.891166 1.198682 -5.478252 0.387939 10.841797 -26.514987 -21.677316 2.403692 0.000000 0.000000 0.000000 -11.265726 -0.851484 -0.462132 -1.438886 -9.758459 5.007683 3.063036 1.391552 -5.151927 24.220653 -32.313523 -59.319462 -11.795104 -33.581547 -7.337755 0.000000 0.000000 0.000000 -7.820593 -1.840144 0.178199 6.990578 1.699214 3.313761 -22.701906 2.026717 4.191399 13.614969 15.073500 53.435247 -24.689013 17.654552 21.047926 0.000000 0.000000 0.000000 
7.149273 7.478701 -12.531350 0.000000 0.000000 0.000000 83.688266 1.654850 -0.006545 -1.648981 -2.346726 37.690767 43.732465 -5.771937 -22.898083 31.903028 64.715066 -37.656820 1.592340 -8.330886 -5.561469 0.000000 0.000000 0.000000 83.611324 -2.509896 -0.444128 -35.523155 -40.941260 -47.278546 42.374313 31.688874 -7.295551 41.421098 -53.015730 43.219258 25.077651 10.255120 7.220454 0.000000 0.000000 0.000000 91.228303 0.637720 -1.434528 17.258018 -0.190124 -1.569099 -10.053447 -2.498234 0.198379 -0.036281 0.475961 0.056623 0.000000 0.000000 0.000000 -5.939758 -0.885562 1.196482 -5.504227 0.385882 10.865571 -26.554281 -21.651454 2.372613 0.000000 0.000000 0.000000 -11.264851 -0.845953 -0.463102 -1.435444 -9.805852 5.026389 3.065616 1.389743 -5.177661 24.183779 -32.331209 -59.318014 -11.787134 -33.456292 -7.324050 0.000000 0.000000 0.000000 -7.818068 -1.835281 0.178174 6.961583 1.650535 3.304554 -22.707474 2.018081 4.220020 13.566300 15.001764 53.420931 -24.714100 17.592793 21.094505 0.000000 0.000000 0.000000 
